<?xml version="1.0" standalone="no"?>
<!DOCTYPE svg PUBLIC "-//W3C//DTD SVG 20010904//EN"
 "http://www.w3.org/TR/2001/REC-SVG-20010904/DTD/svg10.dtd">
<svg version="1.0" xmlns="http://www.w3.org/2000/svg"
 width="1136.000000pt" height="1136.000000pt" viewBox="0 0 1136.000000 1136.000000"
 preserveAspectRatio="xMidYMid meet">
<metadata>
Created by potrace 1.14, written by Peter Selinger 2001-2017
</metadata>
<g transform="translate(0.000000,1136.000000) scale(0.100000,-0.100000)"
fill="#000000" stroke="none">
<path d="M7058 9005 c-2 -1 -43 -5 -93 -9 -252 -17 -516 -94 -812 -237 -56
-27 -107 -49 -113 -49 -5 0 -10 -4 -10 -9 0 -5 -15 -15 -32 -22 -98 -40 -696
-424 -784 -504 -7 -5 -24 -19 -40 -30 -58 -42 -219 -170 -222 -177 -2 -5 -7
-8 -12 -8 -5 0 -19 -9 -32 -20 -12 -11 -88 -72 -168 -136 -134 -107 -170 -138
-256 -212 -17 -15 -55 -47 -84 -72 -30 -25 -64 -54 -76 -65 -12 -11 -51 -45
-85 -75 -34 -30 -74 -66 -88 -79 -14 -13 -64 -58 -110 -100 -46 -42 -112 -103
-146 -136 -35 -33 -116 -110 -182 -171 -258 -243 -537 -519 -778 -769 -190
-197 -295 -308 -295 -310 0 -1 -30 -33 -67 -72 -38 -39 -113 -118 -168 -178
-55 -59 -118 -126 -140 -149 -22 -23 -71 -76 -109 -117 -39 -41 -66 -67 -61
-59 10 19 131 214 161 260 40 62 268 436 313 514 13 22 28 43 32 44 5 2 9 8 9
13 0 8 116 203 184 309 13 19 49 78 81 130 32 52 82 132 112 177 29 45 53 86
53 92 0 5 4 11 8 13 5 2 29 35 53 73 24 39 47 72 51 73 4 2 8 10 8 18 0 8 5
14 10 14 6 0 10 4 10 9 0 13 409 613 430 631 3 3 23 30 45 60 22 30 44 60 50
67 15 18 24 30 85 111 30 39 58 72 62 72 5 0 8 6 8 14 0 8 3 16 8 18 4 2 50
55 103 118 53 63 106 126 118 140 13 14 38 43 58 65 19 22 80 89 136 149 56
59 110 120 119 135 34 50 16 124 -43 179 -58 54 -214 123 -336 147 -13 3 -35
8 -50 11 -156 33 -237 36 -326 12 -37 -10 -85 -29 -105 -42 -40 -26 -117 -104
-172 -176 -19 -25 -37 -47 -40 -50 -13 -11 -159 -237 -171 -262 -7 -16 -16
-28 -21 -28 -4 0 -8 -4 -8 -9 0 -11 -163 -289 -350 -596 -73 -121 -140 -231
-147 -245 -8 -14 -23 -38 -33 -55 -10 -16 -25 -41 -33 -55 -7 -14 -23 -41 -34
-60 -31 -53 -93 -161 -115 -200 -11 -19 -28 -48 -38 -65 -37 -62 -91 -161 -97
-177 -3 -10 -9 -18 -14 -18 -5 0 -9 -5 -9 -11 0 -6 -17 -41 -39 -77 -21 -37
-60 -107 -86 -157 -27 -49 -59 -107 -72 -127 -13 -21 -23 -44 -23 -52 0 -8 -4
-16 -9 -18 -7 -3 -26 -36 -116 -206 -24 -44 -122 -224 -147 -267 -9 -16 -36
-68 -60 -115 -24 -47 -46 -87 -49 -90 -3 -3 -28 -48 -56 -100 -27 -52 -60
-113 -73 -135 -12 -22 -52 -96 -88 -165 -35 -69 -78 -149 -94 -178 -38 -68
-430 -853 -496 -992 -27 -58 -71 -150 -97 -205 -26 -55 -66 -140 -90 -190 -72
-151 -112 -240 -197 -429 -44 -99 -93 -209 -109 -242 -16 -34 -29 -64 -29 -67
0 -2 -10 -26 -22 -53 -12 -27 -23 -51 -23 -54 0 -3 -8 -21 -17 -40 -16 -35
-56 -130 -121 -289 -30 -73 -33 -87 -23 -115 15 -43 27 -53 93 -83 75 -33 160
-35 219 -5 31 16 52 39 85 94 24 40 44 75 45 78 2 11 44 96 51 104 4 4 8 11 8
14 1 14 39 79 126 214 49 77 89 142 89 144 0 7 106 165 164 246 23 31 48 66
56 78 8 12 20 28 25 34 16 18 75 106 75 111 0 3 8 14 18 24 9 11 44 58 77 106
53 76 275 376 308 415 6 9 25 33 41 55 16 22 36 47 43 55 13 14 78 97 133 169
14 18 30 38 35 44 6 7 62 75 125 152 63 77 119 145 125 151 5 6 52 61 104 122
52 62 98 112 103 112 4 0 8 5 8 10 0 6 8 18 18 28 9 10 31 34 47 53 128 144
301 337 314 350 9 9 43 47 76 84 33 37 76 84 95 105 19 21 76 82 125 136 50
54 111 121 138 148 26 27 47 51 47 53 0 1 17 20 38 41 20 21 98 103 172 182
412 439 556 580 916 895 31 28 67 59 79 70 13 11 46 40 74 65 29 25 67 59 85
75 32 30 139 123 180 158 12 10 45 39 75 65 64 56 78 68 127 107 20 17 49 41
64 55 16 14 45 39 66 55 20 17 42 35 48 40 6 6 54 44 106 85 52 41 97 77 100
80 11 13 313 232 415 302 114 78 283 178 370 218 28 12 77 35 110 51 106 49
295 118 368 135 9 2 27 6 40 10 69 17 167 28 243 28 53 -1 82 -6 118 -24 47
-24 172 -138 161 -148 -2 -3 1 -12 7 -20 20 -24 18 -135 -3 -204 -11 -35 -21
-67 -23 -73 -13 -43 -93 -212 -118 -247 -11 -16 -17 -28 -13 -28 7 0 -44 -90
-62 -108 -7 -7 -13 -18 -13 -23 0 -6 -16 -35 -35 -65 -19 -30 -35 -59 -35 -64
0 -6 -4 -10 -10 -10 -5 0 -10 -4 -10 -9 0 -10 -43 -80 -128 -211 -79 -121 -81
-125 -114 -171 -16 -21 -28 -41 -28 -44 0 -3 -5 -11 -11 -18 -12 -14 -124
-176 -242 -352 -45 -66 -85 -121 -89 -123 -4 -2 -8 -10 -8 -17 0 -7 -3 -15 -7
-17 -5 -1 -44 -57 -88 -123 -43 -66 -82 -122 -85 -125 -3 -3 -41 -59 -85 -125
-44 -66 -83 -122 -86 -125 -3 -3 -12 -16 -19 -29 -7 -14 -17 -30 -22 -35 -10
-13 -131 -196 -138 -211 -6 -12 -58 -91 -206 -315 -60 -91 -111 -169 -114
-175 -12 -23 -66 -100 -72 -103 -5 -2 -8 -8 -8 -12 0 -8 -102 -168 -161 -252
-11 -15 -19 -30 -19 -32 0 -3 -16 -30 -35 -60 -19 -30 -35 -60 -35 -66 0 -5
-4 -10 -8 -10 -5 0 -17 -19 -28 -41 -10 -23 -23 -47 -29 -53 -6 -6 -22 -33
-36 -61 -15 -27 -43 -79 -63 -114 -85 -148 -297 -602 -304 -651 -1 -3 -8 -23
-17 -44 -9 -22 -18 -47 -20 -55 -2 -9 -14 -56 -26 -106 -37 -148 -33 -329 10
-450 47 -130 155 -241 252 -259 13 -3 24 -5 24 -6 0 -14 168 -15 194 -1 12 7
21 9 21 6 0 -7 8 0 65 49 22 20 54 43 71 52 30 17 32 20 32 78 -1 34 2 79 6
101 8 47 92 299 112 335 7 14 23 48 35 75 57 134 168 358 282 570 120 224 139
259 158 287 11 14 19 29 19 32 0 15 253 417 302 481 4 6 48 66 98 135 99 138
106 148 167 229 100 131 127 166 135 169 5 2 8 8 8 14 0 5 6 15 13 22 6 7 24
28 39 47 143 180 374 453 513 605 233 257 588 611 850 849 43 39 90 81 105 95
84 76 215 191 274 241 17 13 39 33 51 44 12 11 57 49 101 85 43 36 88 73 99
82 49 41 214 175 241 195 16 12 95 73 175 135 283 219 413 309 595 416 148 86
344 176 408 189 11 2 47 11 80 19 34 9 103 16 156 17 81 0 103 -4 150 -25 99
-45 220 -187 238 -280 23 -119 -5 -281 -74 -436 -13 -29 -24 -59 -24 -66 0 -7
-7 -19 -15 -26 -8 -7 -15 -17 -15 -23 0 -15 -53 -121 -62 -125 -4 -2 -8 -9 -8
-16 0 -7 -24 -50 -52 -97 -29 -46 -59 -96 -67 -111 -8 -16 -18 -28 -23 -28 -4
0 -8 -5 -8 -11 0 -6 -13 -30 -30 -54 -16 -24 -30 -48 -30 -54 0 -6 -4 -11 -10
-11 -5 0 -10 -7 -10 -15 0 -8 -3 -15 -8 -15 -4 0 -12 -9 -17 -21 -17 -35 -219
-344 -227 -347 -4 -2 -8 -10 -8 -18 0 -8 -4 -14 -10 -14 -5 0 -10 -5 -10 -10
0 -6 -27 -51 -60 -101 -33 -50 -60 -93 -60 -95 0 -3 -22 -38 -50 -79 -27 -41
-50 -79 -50 -85 0 -5 -3 -10 -8 -10 -4 0 -18 -20 -32 -45 -14 -25 -28 -45 -31
-45 -4 0 -9 -8 -12 -17 -3 -10 -43 -75 -89 -145 -46 -70 -135 -208 -198 -305
-63 -98 -118 -182 -122 -188 -5 -5 -32 -46 -60 -90 -28 -44 -55 -81 -60 -83
-4 -2 -8 -8 -8 -14 0 -6 -11 -26 -25 -44 -14 -18 -25 -36 -25 -39 0 -4 -13
-25 -29 -48 -61 -88 -125 -192 -123 -199 1 -5 -3 -8 -8 -8 -6 0 -10 -6 -10
-14 0 -8 -3 -16 -8 -18 -6 -2 -214 -333 -246 -393 -10 -17 -103 -173 -157
-263 -200 -331 -557 -1000 -594 -1112 -2 -5 -5 -13 -48 -115 -31 -74 -82 -240
-98 -320 -24 -119 -8 -315 31 -395 4 -8 16 -33 26 -55 39 -83 158 -176 249
-193 17 -4 62 -6 101 -7 64 0 74 3 108 30 20 17 65 50 99 76 61 45 62 45 64
100 2 49 16 111 45 194 12 37 17 48 63 155 21 47 44 104 52 128 9 23 19 42 24
42 5 0 9 7 9 15 0 19 61 148 75 157 5 4 7 8 3 8 -20 0 533 1047 613 1162 11
14 19 29 19 32 0 4 20 40 45 80 25 41 45 79 45 85 0 6 4 11 8 11 5 0 14 16 22
35 8 19 17 35 22 35 4 0 8 6 8 14 0 8 3 16 8 18 6 3 15 17 61 103 9 16 19 32
22 35 4 3 9 15 13 28 4 12 12 22 17 22 5 0 9 5 9 10 0 6 39 77 86 158 48 81
97 167 111 190 14 24 38 65 53 90 16 26 41 70 55 97 15 28 33 57 41 66 8 8 14
19 14 23 0 4 14 27 30 51 17 24 30 46 30 49 0 3 25 46 55 96 30 50 55 93 55
96 0 3 5 10 10 17 6 7 36 55 67 107 30 52 63 107 72 123 90 152 547 911 587
972 28 44 59 96 70 115 10 19 21 37 25 40 5 5 50 90 87 165 9 17 20 33 25 36
5 3 8 8 6 10 -1 2 15 40 36 84 98 211 165 374 180 445 1 8 8 33 13 55 6 22 14
58 17 80 4 22 9 54 11 70 9 51 10 258 2 305 -23 140 -38 179 -101 275 -70 107
-218 208 -352 241 -95 24 -142 28 -280 27 -131 -1 -168 -3 -255 -18 -30 -4
-82 -15 -100 -20 -3 -1 -18 -5 -35 -9 -188 -47 -480 -171 -690 -293 -117 -68
-145 -84 -166 -96 -54 -29 -112 -67 -279 -179 -204 -137 -308 -212 -465 -335
-91 -72 -163 -130 -293 -236 -192 -157 -197 -162 -247 -206 -82 -72 -209 -187
-234 -209 -134 -122 -218 -200 -342 -316 -41 -39 -90 -84 -108 -101 l-34 -30
26 40 c40 61 175 297 183 320 4 11 10 22 13 25 8 7 73 141 129 265 40 91 97
244 107 288 2 9 10 43 19 75 31 121 44 251 41 397 -5 175 -31 273 -110 416
-13 22 -105 112 -141 137 -74 51 -205 90 -329 98 -38 3 -78 6 -87 8 -9 2 -18
3 -20 1z"/>
</g>
</svg>
