<svg width="70" height="42" viewBox="0 0 70 42" fill="none" xmlns="http://www.w3.org/2000/svg">
<path d="M49.6859 42C48.7793 42 48.0859 41.68 47.6059 41.04C47.1793 40.4 46.9659 39.6533 46.9659 38.8C46.9659 37.7867 47.4193 36.32 48.3259 34.4C49.2859 32.4267 50.4859 30.24 51.9259 27.84C53.3659 25.3867 54.8859 22.96 56.4859 20.56C58.0859 18.1067 59.5259 15.8667 60.8059 13.84C62.1393 11.8133 63.1259 10.2667 63.7659 9.2C64.1393 8.61333 64.4859 7.92 64.8059 7.12C65.1793 6.32 65.3659 5.57333 65.3659 4.88C65.3659 4.24 65.1259 3.68 64.6459 3.2C64.1659 2.66666 63.6326 2.4 63.0459 2.4C62.0326 2.4 60.9659 2.69333 59.8459 3.28C58.7259 3.86667 57.7659 4.45333 56.9659 5.04C53.6059 7.49333 50.3526 10.2133 47.2059 13.2C44.1126 16.1333 41.3126 19.28 38.8059 22.64C37.7393 24.0267 36.7259 25.4933 35.7659 27.04C34.8593 28.5867 34.0059 30.16 33.2059 31.76C33.0459 32.08 32.8059 32.5867 32.4859 33.28C32.1659 33.9733 31.8993 34.6667 31.6859 35.36C31.4726 36.0533 31.4193 36.5867 31.5259 36.96C31.2593 37.0667 30.9926 37.2533 30.7259 37.52C30.4593 37.7333 30.1926 37.84 29.9259 37.84C28.9126 37.84 28.1926 37.52 27.7659 36.88C27.3393 36.24 27.1259 35.4933 27.1259 34.64C27.1259 33.5733 27.5259 32.1867 28.3259 30.48C29.1259 28.72 30.1659 26.8267 31.4459 24.8C32.7793 22.7733 34.1393 20.6933 35.5259 18.56C36.9659 16.4267 38.3259 14.4267 39.6059 12.56C40.9393 10.64 42.0059 8.96 42.8059 7.52C43.6059 6.08 44.0059 5.04 44.0059 4.4C44.0059 3.92 43.7926 3.52 43.3659 3.2C42.9926 2.82667 42.5926 2.64 42.1659 2.64C41.2059 2.64 40.0593 2.90667 38.7259 3.44C37.4459 3.97333 36.4059 4.50667 35.6059 5.04C34.3793 5.84 32.9659 6.88 31.3659 8.16C29.8193 9.44 28.2726 10.7733 26.7259 12.16C25.1793 13.4933 23.8726 14.6933 22.8059 15.76C19.8726 18.8 16.9659 21.9467 14.0859 25.2C11.2593 28.4 8.64594 31.7333 6.24594 35.2C5.81927 35.7867 5.3926 36.4 4.96594 37.04C4.5926 37.68 4.1926 38.32 3.76594 38.96C3.5526 39.3333 3.36594 39.68 3.20594 40C3.04594 40.3733 2.85927 40.72 2.64594 41.04C2.48594 41.4133 2.1126 41.6 1.52594 41.6C1.3126 41.6 1.04594 41.52 0.725938 41.36C0.405938 41.2533 0.245938 41.04 0.245938 40.72C0.245938 40.56 0.272604 40.4533 0.325938 40.4C1.5526 37.4133 2.85927 34.48 4.24594 31.6C5.6326 28.6667 7.0726 25.7867 8.56594 22.96C10.0593 20.1867 11.5526 17.44 13.0459 14.72C14.5393 12 16.1126 9.30667 17.7659 6.64C18.1926 5.89333 18.7259 4.98666 19.3659 3.92C20.0593 2.8 20.6993 1.94666 21.2859 1.36C21.7126 0.933332 22.3259 0.719998 23.1259 0.719998C23.4459 0.719998 23.9259 0.799998 24.5659 0.959997C25.2059 1.06666 25.7926 1.28 26.3259 1.6C26.8593 1.86666 27.1259 2.24 27.1259 2.72C27.1259 2.88 27.0193 3.06666 26.8059 3.28C24.9926 5.14666 23.2326 7.28 21.5259 9.68C19.8726 12.0267 18.2993 14.4267 16.8059 16.88C15.3126 19.3333 13.8726 21.68 12.4859 23.92C13.7126 22.5867 15.2593 20.9333 17.1259 18.96C19.0459 16.9333 21.1526 14.8533 23.4459 12.72C25.7393 10.5333 28.0859 8.50666 30.4859 6.64C32.8859 4.72 35.2059 3.17333 37.4459 2C39.7393 0.826666 41.8193 0.239999 43.6859 0.239999C46.5126 0.239999 47.9259 1.68 47.9259 4.56C47.9259 6 47.5793 7.49333 46.8859 9.04C46.1926 10.5867 45.4459 11.9733 44.6459 13.2C45.8193 12.08 47.2059 10.8 48.8059 9.36C50.4593 7.92 52.2193 6.50666 54.0859 5.12C56.0059 3.73333 57.8993 2.58667 59.7659 1.68C61.6326 0.773331 63.3926 0.319998 65.0459 0.319998C66.4326 0.319998 67.5259 0.666665 68.3259 1.36C69.1793 2.05333 69.6059 3.12 69.6059 4.56C69.6059 5.84 69.3126 7.14666 68.7259 8.48C68.1393 9.81333 67.5259 11.0133 66.8859 12.08C66.4593 12.72 65.7926 13.8133 64.8859 15.36C63.9793 16.8533 62.9393 18.5867 61.7659 20.56C60.5926 22.5333 59.3926 24.5867 58.1659 26.72C56.9393 28.8 55.7926 30.8267 54.7259 32.8C53.7126 34.72 52.8859 36.4 52.2459 37.84C51.6059 39.2267 51.2859 40.1867 51.2859 40.72V41.04C51.0193 41.2 50.7526 41.3867 50.4859 41.6C50.2726 41.8667 50.0059 42 49.6859 42Z" fill="none" stroke='black' stoke-width='2'/>
</svg>
