<svg width="71" height="42" viewBox="0 0 71 42" fill="none" xmlns="http://www.w3.org/2000/svg">
<path d="M48.1059 41.04L47.2739 41.5947L47.2893 41.6178L47.3059 41.64L48.1059 41.04ZM48.8259 34.4L47.9266 33.9625L47.9217 33.973L48.8259 34.4ZM52.4259 27.84L53.2835 28.3545L53.2884 28.3462L52.4259 27.84ZM56.9859 20.56L57.818 21.1147L57.8236 21.1063L56.9859 20.56ZM61.3059 13.84L60.4705 13.2904L60.4654 13.2981L60.4605 13.306L61.3059 13.84ZM64.2659 9.2L63.4223 8.66312L63.4152 8.67422L63.4084 8.6855L64.2659 9.2ZM65.3059 7.12L64.3998 6.69711L64.3879 6.72255L64.3775 6.74861L65.3059 7.12ZM65.1459 3.2L64.4026 3.86896L64.4202 3.88851L64.4388 3.90711L65.1459 3.2ZM60.3459 3.28L60.8099 4.16583L60.8099 4.16583L60.3459 3.28ZM57.4659 5.04L58.0556 5.84763L58.0573 5.8464L57.4659 5.04ZM47.7059 13.2L48.394 13.9256L48.3944 13.9253L47.7059 13.2ZM39.3059 22.64L40.0986 23.2497L40.1031 23.2439L40.1075 23.238L39.3059 22.64ZM36.2659 27.04L35.4163 26.5126L35.4096 26.5234L35.4032 26.5343L36.2659 27.04ZM33.7059 31.76L34.6004 32.2072L34.6004 32.2072L33.7059 31.76ZM32.9859 33.28L33.8939 33.6991L33.8939 33.6991L32.9859 33.28ZM32.1859 35.36L31.2302 35.0659L31.2302 35.0659L32.1859 35.36ZM32.0259 36.96L32.3973 37.8885L33.2354 37.5532L32.9875 36.6853L32.0259 36.96ZM31.2259 37.52L31.8506 38.3009L31.8939 38.2663L31.933 38.2271L31.2259 37.52ZM28.2659 36.88L27.4339 37.4347L27.4339 37.4347L28.2659 36.88ZM28.8259 30.48L29.7315 30.9045L29.7363 30.8938L28.8259 30.48ZM31.9459 24.8L31.1105 24.2504L31.1054 24.2581L31.1005 24.266L31.9459 24.8ZM36.0259 18.56L35.1971 18.0005L35.1922 18.0077L35.1875 18.015L36.0259 18.56ZM40.1059 12.56L39.2846 11.9896L39.2812 11.9945L40.1059 12.56ZM43.8659 3.2L43.1588 3.9071L43.2091 3.95736L43.2659 4L43.8659 3.2ZM39.2259 3.44L38.8545 2.51152L38.8479 2.51417L38.8413 2.51692L39.2259 3.44ZM36.1059 5.04L36.6522 5.87765L36.6606 5.87205L36.1059 5.04ZM31.8659 8.16L31.2412 7.37913L31.2348 7.38431L31.2284 7.3896L31.8659 8.16ZM27.2259 12.16L27.8789 12.9174L27.8862 12.9111L27.8935 12.9046L27.2259 12.16ZM23.3059 15.76L22.5988 15.0529L22.5925 15.0592L22.5863 15.0656L23.3059 15.76ZM14.5859 25.2L13.8372 24.5372L13.8365 24.538L14.5859 25.2ZM6.74594 35.2L7.55467 35.7882L7.56151 35.7788L7.56813 35.7692L6.74594 35.2ZM5.46594 37.04L4.63389 36.4853L4.61726 36.5102L4.60216 36.5361L5.46594 37.04ZM4.26594 38.96L3.43389 38.4053L3.41478 38.434L3.39769 38.4639L4.26594 38.96ZM3.70594 40L2.81151 39.5528L2.79837 39.5791L2.78679 39.6061L3.70594 40ZM3.14594 41.04L2.31389 40.4853L2.26296 40.5617L2.22679 40.6461L3.14594 41.04ZM1.22594 41.36L1.67315 40.4656L1.60959 40.4338L1.54217 40.4113L1.22594 41.36ZM0.825938 40.4L1.53304 41.1071L1.6748 40.9654L1.75096 40.7799L0.825938 40.4ZM4.74594 31.6L5.64696 32.0338L5.65001 32.0274L4.74594 31.6ZM9.06594 22.96L8.18544 22.4859L8.18174 22.4929L9.06594 22.96ZM13.5459 14.72L12.6694 14.2387L12.6694 14.2387L13.5459 14.72ZM18.2659 6.64L19.1158 7.16694L19.1253 7.1517L19.1342 7.13614L18.2659 6.64ZM19.8659 3.92L19.0156 3.39359L19.0084 3.4055L19.8659 3.92ZM21.7859 1.36L22.493 2.06711L22.493 2.0671L21.7859 1.36ZM25.0659 0.959997L24.8234 1.93014L24.8621 1.93983L24.9015 1.94639L25.0659 0.959997ZM26.8259 1.6L26.3114 2.45749L26.3444 2.47725L26.3787 2.49443L26.8259 1.6ZM27.3059 3.28L26.5988 2.57289L26.5937 2.57802L26.5887 2.58321L27.3059 3.28ZM22.0259 9.68L21.211 9.10047L21.2085 9.10405L22.0259 9.68ZM17.3059 16.88L16.4517 16.3601L16.4517 16.3601L17.3059 16.88ZM12.9859 23.92L12.1357 23.3936L13.7219 24.5971L12.9859 23.92ZM17.6259 18.96L16.9 18.2723L16.8995 18.2728L17.6259 18.96ZM23.9459 12.72L24.6271 13.4522L24.636 13.4437L23.9459 12.72ZM30.9859 6.64L31.5999 7.42942L31.6106 7.42087L30.9859 6.64ZM37.9459 2L37.4904 1.10971L37.4819 1.11417L37.9459 2ZM47.3859 9.04L46.4734 8.63094L46.4734 8.63094L47.3859 9.04ZM45.1459 13.2L44.3083 12.6537L45.8364 13.9234L45.1459 13.2ZM49.3059 9.36L48.6492 8.60592L48.643 8.61126L48.637 8.6167L49.3059 9.36ZM54.5859 5.12L54.0004 4.30925L53.9896 4.31725L54.5859 5.12ZM60.2659 1.68L59.829 0.780489L60.2659 1.68ZM68.8259 1.36L68.171 2.11569L68.183 2.12609L68.1953 2.13611L68.8259 1.36ZM67.3859 12.08L68.218 12.6347L68.2312 12.6149L68.2434 12.5945L67.3859 12.08ZM65.3859 15.36L66.2407 15.879L66.2447 15.8724L66.2486 15.8657L65.3859 15.36ZM62.2659 20.56L61.4064 20.0489L61.4064 20.0489L62.2659 20.56ZM58.6659 26.72L59.5274 27.228L59.5328 27.2185L58.6659 26.72ZM55.2259 32.8L54.3462 32.3245L54.3416 32.3332L55.2259 32.8ZM52.7459 37.84L53.6539 38.2591L53.6569 38.2526L53.6597 38.2461L52.7459 37.84ZM51.7859 41.04L52.3004 41.8975L52.7859 41.6062V41.04H51.7859ZM50.9859 41.6L50.3612 40.8191L50.2745 40.8885L50.2051 40.9753L50.9859 41.6ZM50.1859 41C49.546 41 49.17 40.7921 48.9059 40.44L47.3059 41.64C48.0019 42.5679 49.0125 43 50.1859 43V41ZM48.938 40.4853C48.6327 40.0273 48.4659 39.4783 48.4659 38.8H46.4659C46.4659 39.8283 46.7259 40.7727 47.2739 41.5947L48.938 40.4853ZM48.4659 38.8C48.4659 38.0233 48.8323 36.7285 49.7302 34.827L47.9217 33.973C47.0063 35.9115 46.4659 37.55 46.4659 38.8H48.4659ZM49.7252 34.8375C50.6695 32.8964 51.8546 30.7359 53.2834 28.3545L51.5684 27.3255C50.1173 29.7441 48.9024 31.9569 47.9267 33.9625L49.7252 34.8375ZM53.2884 28.3462C54.7186 25.9095 56.2284 23.499 57.818 21.1147L56.1539 20.0053C54.5435 22.421 53.0133 24.8638 51.5635 27.3338L53.2884 28.3462ZM57.8236 21.1063C59.4256 18.6497 60.8683 16.4055 62.1514 14.374L60.4605 13.306C59.1835 15.3278 57.7462 17.5636 56.1483 20.0137L57.8236 21.1063ZM62.1414 14.3896C63.4766 12.36 64.4725 10.7994 65.1234 9.71449L63.4084 8.6855C62.7794 9.7339 61.8019 11.2666 60.4705 13.2904L62.1414 14.3896ZM65.1096 9.73687C65.5231 9.08714 65.8966 8.33601 66.2344 7.49139L64.3775 6.74861C64.0753 7.50399 63.7555 8.13953 63.4223 8.66312L65.1096 9.73687ZM66.2121 7.54289C66.6309 6.64545 66.8659 5.75368 66.8659 4.88H64.8659C64.8659 5.39298 64.7276 5.99455 64.3998 6.69711L66.2121 7.54289ZM66.8659 4.88C66.8659 3.95744 66.508 3.1478 65.853 2.49289L64.4388 3.90711C64.7439 4.21219 64.8659 4.52255 64.8659 4.88H66.8659ZM65.8892 2.53104C65.2654 1.83785 64.478 1.4 63.5459 1.4V3.4C63.7872 3.4 64.0665 3.49548 64.4026 3.86896L65.8892 2.53104ZM63.5459 1.4C62.3358 1.4 61.1103 1.75073 59.8819 2.39417L60.8099 4.16583C61.8216 3.63594 62.7294 3.4 63.5459 3.4V1.4ZM59.8819 2.39417C58.729 2.99811 57.7242 3.61055 56.8746 4.23359L58.0573 5.8464C58.8077 5.29611 59.7229 4.73522 60.8099 4.16583L59.8819 2.39417ZM56.8762 4.23237C53.4802 6.71205 50.194 9.45975 47.0175 12.4747L48.3944 13.9253C51.5112 10.9669 54.7317 8.27461 58.0556 5.84763L56.8762 4.23237ZM47.0178 12.4744C43.8838 15.4463 41.0458 18.6356 38.5044 22.042L40.1075 23.238C42.5795 19.9244 45.3414 16.8204 48.394 13.9256L47.0178 12.4744ZM38.5133 22.0303C37.4255 23.4445 36.3932 24.9387 35.4163 26.5126L37.1156 27.5674C38.0587 26.0479 39.0531 24.6089 40.0986 23.2497L38.5133 22.0303ZM35.4032 26.5343C34.4854 28.1 33.6215 29.6929 32.8115 31.3128L34.6004 32.2072C35.3904 30.6271 36.2332 29.0733 37.1286 27.5457L35.4032 26.5343ZM32.8115 31.3128C32.6441 31.6476 32.3986 32.1662 32.078 32.8609L33.8939 33.6991C34.2133 33.0071 34.4478 32.5124 34.6004 32.2072L32.8115 31.3128ZM32.078 32.8609C31.7402 33.5927 31.4573 34.3277 31.2302 35.0659L33.1417 35.6541C33.3413 35.0056 33.5916 34.354 33.8939 33.6991L32.078 32.8609ZM31.2302 35.0659C31.002 35.8074 30.8755 36.5737 31.0644 37.2347L32.9875 36.6853C32.963 36.5997 32.9432 36.2992 33.1417 35.6541L31.2302 35.0659ZM31.6545 36.0315C31.2294 36.2016 30.8527 36.479 30.5188 36.8129L31.933 38.2271C32.1325 38.0277 32.2891 37.9318 32.3973 37.8885L31.6545 36.0315ZM30.6012 36.7391C30.5306 36.7957 30.4813 36.8208 30.4545 36.8315C30.4302 36.8413 30.4225 36.84 30.4259 36.84V38.84C30.9769 38.84 31.4572 38.6156 31.8506 38.3009L30.6012 36.7391ZM30.4259 36.84C29.6288 36.84 29.2821 36.6014 29.098 36.3253L27.4339 37.4347C28.1032 38.4386 29.1964 38.84 30.4259 38.84V36.84ZM29.098 36.3253C28.7927 35.8673 28.6259 35.3183 28.6259 34.64H26.6259C26.6259 35.6683 26.8859 36.6127 27.4339 37.4347L29.098 36.3253ZM28.6259 34.64C28.6259 33.7926 28.953 32.5651 29.7314 30.9044L27.9205 30.0556C27.0989 31.8083 26.6259 33.3541 26.6259 34.64H28.6259ZM29.7363 30.8938C30.5136 29.1837 31.5303 27.3308 32.7914 25.334L31.1005 24.266C29.8016 26.3225 28.7383 28.2563 27.9156 30.0662L29.7363 30.8938ZM32.7814 25.3496C34.1158 23.3213 35.4768 21.2398 36.8644 19.105L35.1875 18.015C33.8018 20.1469 32.4428 22.2253 31.1105 24.2504L32.7814 25.3496ZM36.8548 19.1195C38.2936 16.9879 39.6522 14.9899 40.9307 13.1255L39.2812 11.9945C37.9997 13.8634 36.6383 15.8654 35.1971 18.0005L36.8548 19.1195ZM40.9273 13.1304C42.2725 11.1934 43.3588 9.48398 44.1801 8.00564L42.4318 7.03436C41.6531 8.43601 40.6061 10.0866 39.2846 11.9896L40.9273 13.1304ZM44.1801 8.00564C44.5931 7.26218 44.9167 6.59777 45.1393 6.01898C45.3556 5.45645 45.5059 4.90154 45.5059 4.4H43.5059C43.5059 4.53846 43.4562 4.82354 43.2726 5.30102C43.0952 5.76222 42.8187 6.33782 42.4318 7.03436L44.1801 8.00564ZM45.5059 4.4C45.5059 3.56706 45.1122 2.8847 44.4659 2.4L43.2659 4C43.473 4.15529 43.5059 4.27294 43.5059 4.4H45.5059ZM44.573 2.49289C44.0594 1.97921 43.4178 1.64 42.6659 1.64V3.64C42.7674 3.64 42.9258 3.67412 43.1588 3.9071L44.573 2.49289ZM42.6659 1.64C41.532 1.64 40.253 1.95214 38.8545 2.51152L39.5973 4.36848C40.8655 3.8612 41.8799 3.64 42.6659 3.64V1.64ZM38.8413 2.51692C37.5255 3.06519 36.4227 3.62701 35.5512 4.20795L36.6606 5.87205C37.3892 5.38632 38.3664 4.88148 39.6106 4.36308L38.8413 2.51692ZM35.5597 4.20239C34.2977 5.02541 32.8574 6.08624 31.2412 7.37913L32.4906 8.94087C34.0745 7.67375 35.4608 6.65458 36.6522 5.87761L35.5597 4.20239ZM31.2284 7.3896C29.6712 8.6783 28.1145 10.0203 26.5584 11.4154L27.8935 12.9046C29.4307 11.5264 30.9673 10.2017 32.5035 8.93039L31.2284 7.3896ZM26.573 11.4026C25.0137 12.7468 23.6878 13.9639 22.5988 15.0529L24.013 16.4671C25.0574 15.4227 26.3448 14.2399 27.8789 12.9174L26.573 11.4026ZM22.5863 15.0656C19.6428 18.1162 16.7264 21.2734 13.8372 24.5372L15.3347 25.8628C18.2055 22.6199 21.1024 19.4838 24.0256 16.4544L22.5863 15.0656ZM13.8365 24.538C10.9841 27.7671 8.34642 31.1314 5.92375 34.6308L7.56813 35.7692C9.94546 32.3353 12.5345 29.0329 15.3354 25.862L13.8365 24.538ZM5.9372 34.6118C5.50208 35.2101 5.06765 35.8347 4.63389 36.4853L6.29799 37.5947C6.71756 36.9653 7.13647 36.3632 7.55467 35.7882L5.9372 34.6118ZM4.60216 36.5361C4.23926 37.1582 3.84989 37.7813 3.43389 38.4053L5.09799 39.5147C5.53532 38.8587 5.94594 38.2018 6.32972 37.5439L4.60216 36.5361ZM3.39769 38.4639C3.17694 38.8502 2.98123 39.2133 2.81151 39.5528L4.60036 40.4472C4.75064 40.1467 4.92827 39.8165 5.13418 39.4561L3.39769 38.4639ZM2.78679 39.6061C2.64951 39.9264 2.4915 40.2189 2.31389 40.4853L3.97799 41.5947C4.22704 41.2211 4.44236 40.8203 4.62508 40.3939L2.78679 39.6061ZM2.22679 40.6461C2.23129 40.6356 2.2423 40.6158 2.2618 40.5953C2.28102 40.5752 2.29684 40.5665 2.29872 40.5656C2.29897 40.5655 2.28088 40.5745 2.23507 40.5834C2.18893 40.5924 2.12079 40.6 2.02594 40.6V42.6C2.80532 42.6 3.67941 42.3338 4.06508 41.4339L2.22679 40.6461ZM2.02594 40.6C2.04103 40.6 2.02012 40.6022 1.95329 40.5822C1.8879 40.5626 1.79547 40.5267 1.67315 40.4656L0.778724 42.2544C1.15532 42.4427 1.58603 42.6 2.02594 42.6V40.6ZM1.54217 40.4113C1.52392 40.4052 1.59508 40.4255 1.66594 40.52C1.74014 40.6189 1.74594 40.7081 1.74594 40.72H-0.254062C-0.254062 41.0519 -0.168266 41.4077 0.0659375 41.72C0.296793 42.0278 0.607958 42.2081 0.90971 42.3087L1.54217 40.4113ZM1.74594 40.72C1.74594 40.6883 1.74932 40.7096 1.73608 40.7625C1.72435 40.8095 1.68025 40.9599 1.53304 41.1071L0.118831 39.6929C-0.0817049 39.8934 -0.16581 40.1239 -0.204205 40.2775C-0.244114 40.4371 -0.254062 40.5917 -0.254062 40.72H1.74594ZM1.75096 40.7799C2.97023 37.8113 4.26889 34.8959 5.64694 32.0338L3.84494 31.1662C2.44965 34.0641 1.13498 37.0154 -0.0990823 40.0201L1.75096 40.7799ZM5.65001 32.0274C7.03044 29.1072 8.46382 26.2405 9.95013 23.4271L8.18174 22.4929C6.68139 25.3328 5.23477 28.2261 3.84187 31.1726L5.65001 32.0274ZM9.94641 23.4341C11.4385 20.6631 12.9305 17.9188 14.4225 15.2013L12.6694 14.2387C11.1747 16.9612 9.68007 19.7102 8.18547 22.4859L9.94641 23.4341ZM14.4225 15.2013C15.9073 12.4969 17.4717 9.81878 19.1158 7.16694L17.416 6.11306C15.7535 8.79455 14.1713 11.5031 12.6694 14.2387L14.4225 15.2013ZM19.1342 7.13614C19.5562 6.39767 20.0856 5.4975 20.7234 4.43449L19.0084 3.4055C18.3663 4.47583 17.829 5.38899 17.3977 6.14386L19.1342 7.13614ZM20.7162 4.44635C21.3897 3.35844 21.9831 2.57707 22.493 2.06711L21.0788 0.652891C20.4155 1.31626 19.7289 2.24156 19.0157 3.39364L20.7162 4.44635ZM22.493 2.0671C22.6772 1.88295 23.0017 1.72 23.6259 1.72V-0.280002C22.6502 -0.280002 21.748 -0.0162908 21.0788 0.652894L22.493 2.0671ZM23.6259 1.72C23.8168 1.72 24.1975 1.77367 24.8234 1.93014L25.3085 -0.0101456C24.6544 -0.173672 24.0751 -0.280002 23.6259 -0.280002V1.72ZM24.9015 1.94639C25.4232 2.03334 25.8903 2.20481 26.3114 2.45749L27.3404 0.742506C26.6949 0.355185 25.9887 0.0999907 25.2303 -0.0263967L24.9015 1.94639ZM26.3787 2.49443C26.5418 2.57599 26.5978 2.64111 26.6122 2.66124C26.6189 2.67061 26.6206 2.67546 26.6215 2.67827C26.6225 2.68152 26.6259 2.6937 26.6259 2.72H28.6259C28.6259 1.76243 28.0468 1.09241 27.2732 0.705571L26.3787 2.49443ZM26.6259 2.72C26.6259 2.57622 26.6733 2.49159 26.6777 2.48386C26.6811 2.47791 26.6786 2.4834 26.6651 2.5003C26.6517 2.51697 26.6305 2.5412 26.5988 2.57289L28.013 3.98711C28.2656 3.7346 28.6259 3.2994 28.6259 2.72H26.6259ZM26.5887 2.58321C24.7356 4.49081 22.9434 6.66426 21.211 9.10048L22.8409 10.2595C24.5218 7.89573 26.2496 5.80252 28.0232 3.97678L26.5887 2.58321ZM21.2085 9.10405C19.5423 11.469 17.9567 13.8877 16.4517 16.3601L18.1601 17.3999C19.6419 14.9657 21.203 12.5844 22.8434 10.256L21.2085 9.10405ZM16.4517 16.3601C14.9596 18.8114 13.5209 21.156 12.1357 23.3936L13.8362 24.4464C15.2243 22.204 16.6656 19.8552 18.1601 17.3999L16.4517 16.3601ZM13.7219 24.5971C14.9443 23.2683 16.4875 21.6186 18.3524 19.6472L16.8995 18.2728C15.031 20.248 13.4809 21.905 12.25 23.2429L13.7219 24.5971ZM18.3519 19.6477C20.2558 17.6381 22.3473 15.5729 24.627 13.4522L23.2648 11.9878C20.9579 14.1338 18.8361 16.2286 16.9 18.2723L18.3519 19.6477ZM24.636 13.4437C26.9061 11.2792 29.2274 9.27459 31.5999 7.42935L30.372 5.85065C27.9445 7.73874 25.5724 9.78743 23.2559 11.9963L24.636 13.4437ZM31.6106 7.42087C33.9708 5.5327 36.2373 4.02387 38.4099 2.88583L37.4819 1.11417C35.1745 2.3228 32.801 3.9073 30.3612 5.85913L31.6106 7.42087ZM38.4014 2.89025C40.6044 1.76312 42.5262 1.24 44.1859 1.24V-0.760001C42.1124 -0.760001 39.8741 -0.109784 37.4905 1.10975L38.4014 2.89025ZM44.1859 1.24C45.4403 1.24 46.1985 1.55819 46.6523 2.02047C47.1094 2.48619 47.4259 3.2695 47.4259 4.56H49.4259C49.4259 2.9705 49.0359 1.5938 48.0796 0.619531C47.12 -0.358196 45.7582 -0.760001 44.1859 -0.760001V1.24ZM47.4259 4.56C47.4259 5.83625 47.1192 7.19042 46.4734 8.63094L48.2984 9.44905C49.0394 7.79625 49.4259 6.16374 49.4259 4.56H47.4259ZM46.4734 8.63094C45.7982 10.1372 45.0758 11.477 44.3083 12.6537L45.9836 13.7463C46.8161 12.4697 47.587 11.0361 48.2984 9.44905L46.4734 8.63094ZM45.8364 13.9234C47.0008 12.8119 48.38 11.5387 49.9749 10.1033L48.637 8.6167C47.0319 10.0613 45.6377 11.3481 44.4555 12.4766L45.8364 13.9234ZM49.9627 10.1141C51.5954 8.69206 53.3351 7.2949 55.1823 5.92274L53.9896 4.31725C52.1034 5.71843 50.3231 7.14793 48.6492 8.60592L49.9627 10.1141ZM55.1714 5.93068C57.051 4.57322 58.8949 3.45767 60.7028 2.57951L59.829 0.780489C57.9037 1.71566 55.9609 2.89344 54.0004 4.30932L55.1714 5.93068ZM60.7028 2.57951C62.4672 1.72254 64.0775 1.32 65.5459 1.32V-0.680002C63.7077 -0.680002 61.798 -0.175877 59.829 0.780489L60.7028 2.57951ZM65.5459 1.32C66.7679 1.32 67.603 1.62338 68.171 2.11569L69.4809 0.604311C68.4489 -0.290053 67.0973 -0.680002 65.5459 -0.680002V1.32ZM68.1953 2.13611C68.7469 2.58422 69.1059 3.32078 69.1059 4.56H71.1059C71.1059 2.91922 70.6117 1.52244 69.4565 0.583885L68.1953 2.13611ZM69.1059 4.56C69.1059 5.68343 68.8491 6.85337 68.3106 8.07726L70.1413 8.88274C70.7761 7.43996 71.1059 5.99656 71.1059 4.56H69.1059ZM68.3106 8.07726C67.7381 9.37848 67.1436 10.5403 66.5284 11.5655L68.2434 12.5945C68.9083 11.4864 69.5405 10.2482 70.1413 8.88274L68.3106 8.07726ZM66.5539 11.5253C66.1097 12.1916 65.4303 13.3069 64.5232 14.8543L66.2486 15.8657C67.1549 14.3197 67.8088 13.2484 68.218 12.6347L66.5539 11.5253ZM64.5312 14.841C63.6225 16.3376 62.5809 18.0737 61.4064 20.0489L63.1255 21.0711C64.2977 19.0996 65.3361 17.369 66.2407 15.879L64.5312 14.841ZM61.4064 20.0489C60.2304 22.0267 59.028 24.0843 57.799 26.2215L59.5328 27.2185C60.7573 25.0891 61.9548 23.0399 63.1255 21.0711L61.4064 20.0489ZM57.8046 26.212C56.5721 28.3019 55.4192 30.3394 54.3462 32.3245L56.1056 33.2755C57.166 31.3139 58.3065 29.2981 59.5273 27.228L57.8046 26.212ZM54.3416 32.3332C53.3213 34.2663 52.4839 35.9673 51.8321 37.4339L53.6597 38.2461C54.288 36.8327 55.1039 35.1737 56.1103 33.2668L54.3416 32.3332ZM51.838 37.4209C51.5094 38.1328 51.2532 38.756 51.0773 39.2838C50.908 39.7915 50.7859 40.2885 50.7859 40.72H52.7859C52.7859 40.6181 52.8239 40.3685 52.9746 39.9162C53.1187 39.484 53.3424 38.9339 53.6539 38.2591L51.838 37.4209ZM50.7859 40.72V41.04H52.7859V40.72H50.7859ZM51.2714 40.1825C50.9629 40.3677 50.6595 40.5805 50.3612 40.8191L51.6106 42.3809C51.8457 42.1928 52.0757 42.0323 52.3004 41.8975L51.2714 40.1825ZM50.2051 40.9753C50.1899 40.9943 50.1796 41.0035 50.1758 41.0068C50.1722 41.0098 50.1732 41.0083 50.1787 41.0056C50.1844 41.0027 50.1902 41.0008 50.1943 40.9999C50.1982 40.999 50.1961 41 50.1859 41V43C50.8325 43 51.3784 42.7102 51.7668 42.2247L50.2051 40.9753Z" stroke='black' stoke-width='1'/>
</svg>
