<svg width="71" height="42" viewBox="0 0 71 42" fill="none" xmlns="http://www.w3.org/2000/svg">
<path d="M50.1859 42C49.2793 42 48.5859 41.68 48.1059 41.04C47.6793 40.4 47.4659 39.6533 47.4659 38.8C47.4659 37.7867 47.9193 36.32 48.8259 34.4C49.7859 32.4267 50.9859 30.24 52.4259 27.84C53.8659 25.3867 55.3859 22.96 56.9859 20.56C58.5859 18.1067 60.0259 15.8667 61.3059 13.84C62.6393 11.8133 63.6259 10.2667 64.2659 9.2C64.6393 8.61333 64.9859 7.92 65.3059 7.12C65.6793 6.32 65.8659 5.57333 65.8659 4.88C65.8659 4.24 65.6259 3.68 65.1459 3.2C64.6659 2.66666 64.1326 2.4 63.5459 2.4C62.5326 2.4 61.4659 2.69333 60.3459 3.28C59.2259 3.86667 58.2659 4.45333 57.4659 5.04C54.1059 7.49333 50.8526 10.2133 47.7059 13.2C44.6126 16.1333 41.8126 19.28 39.3059 22.64C38.2393 24.0267 37.2259 25.4933 36.2659 27.04C35.3593 28.5867 34.5059 30.16 33.7059 31.76C33.5459 32.08 33.3059 32.5867 32.9859 33.28C32.6659 33.9733 32.3993 34.6667 32.1859 35.36C31.9726 36.0533 31.9193 36.5867 32.0259 36.96C31.7593 37.0667 31.4926 37.2533 31.2259 37.52C30.9593 37.7333 30.6926 37.84 30.4259 37.84C29.4126 37.84 28.6926 37.52 28.2659 36.88C27.8393 36.24 27.6259 35.4933 27.6259 34.64C27.6259 33.5733 28.0259 32.1867 28.8259 30.48C29.6259 28.72 30.6659 26.8267 31.9459 24.8C33.2793 22.7733 34.6393 20.6933 36.0259 18.56C37.4659 16.4267 38.8259 14.4267 40.1059 12.56C41.4393 10.64 42.5059 8.96 43.3059 7.52C44.1059 6.08 44.5059 5.04 44.5059 4.4C44.5059 3.92 44.2926 3.52 43.8659 3.2C43.4926 2.82667 43.0926 2.64 42.6659 2.64C41.7059 2.64 40.5593 2.90667 39.2259 3.44C37.9459 3.97333 36.9059 4.50667 36.1059 5.04C34.8793 5.84 33.4659 6.88 31.8659 8.16C30.3193 9.44 28.7726 10.7733 27.2259 12.16C25.6793 13.4933 24.3726 14.6933 23.3059 15.76C20.3726 18.8 17.4659 21.9467 14.5859 25.2C11.7593 28.4 9.14594 31.7333 6.74594 35.2C6.31927 35.7867 5.8926 36.4 5.46594 37.04C5.0926 37.68 4.6926 38.32 4.26594 38.96C4.0526 39.3333 3.86594 39.68 3.70594 40C3.54594 40.3733 3.35927 40.72 3.14594 41.04C2.98594 41.4133 2.6126 41.6 2.02594 41.6C1.8126 41.6 1.54594 41.52 1.22594 41.36C0.905938 41.2533 0.745938 41.04 0.745938 40.72C0.745938 40.56 0.772604 40.4533 0.825938 40.4C2.0526 37.4133 3.35927 34.48 4.74594 31.6C6.1326 28.6667 7.5726 25.7867 9.06594 22.96C10.5593 20.1867 12.0526 17.44 13.5459 14.72C15.0393 12 16.6126 9.30667 18.2659 6.64C18.6926 5.89333 19.2259 4.98666 19.8659 3.92C20.5593 2.8 21.1993 1.94666 21.7859 1.36C22.2126 0.933332 22.8259 0.719998 23.6259 0.719998C23.9459 0.719998 24.4259 0.799998 25.0659 0.959997C25.7059 1.06666 26.2926 1.28 26.8259 1.6C27.3593 1.86666 27.6259 2.24 27.6259 2.72C27.6259 2.88 27.5193 3.06666 27.3059 3.28C25.4926 5.14666 23.7326 7.28 22.0259 9.68C20.3726 12.0267 18.7993 14.4267 17.3059 16.88C15.8126 19.3333 14.3726 21.68 12.9859 23.92C14.2126 22.5867 15.7593 20.9333 17.6259 18.96C19.5459 16.9333 21.6526 14.8533 23.9459 12.72C26.2393 10.5333 28.5859 8.50666 30.9859 6.64C33.3859 4.72 35.7059 3.17333 37.9459 2C40.2393 0.826666 42.3193 0.239999 44.1859 0.239999C47.0126 0.239999 48.4259 1.68 48.4259 4.56C48.4259 6 48.0793 7.49333 47.3859 9.04C46.6926 10.5867 45.9459 11.9733 45.1459 13.2C46.3193 12.08 47.7059 10.8 49.3059 9.36C50.9593 7.92 52.7193 6.50666 54.5859 5.12C56.5059 3.73333 58.3993 2.58667 60.2659 1.68C62.1326 0.773331 63.8926 0.319998 65.5459 0.319998C66.9326 0.319998 68.0259 0.666665 68.8259 1.36C69.6793 2.05333 70.1059 3.12 70.1059 4.56C70.1059 5.84 69.8126 7.14666 69.2259 8.48C68.6393 9.81333 68.0259 11.0133 67.3859 12.08C66.9593 12.72 66.2926 13.8133 65.3859 15.36C64.4793 16.8533 63.4393 18.5867 62.2659 20.56C61.0926 22.5333 59.8926 24.5867 58.6659 26.72C57.4393 28.8 56.2926 30.8267 55.2259 32.8C54.2126 34.72 53.3859 36.4 52.7459 37.84C52.1059 39.2267 51.7859 40.1867 51.7859 40.72V41.04C51.5193 41.2 51.2526 41.3867 50.9859 41.6C50.7726 41.8667 50.5059 42 50.1859 42Z" fill="#202020"/>
</svg>
